<svg version="1.1" id="Layer_1" xmlns="http://www.w3.org/2000/svg" xmlns:xlink="http://www.w3.org/1999/xlink" x="0px" y="0px"
	 width="100%" viewBox="0 0 496 496" enable-background="new 0 0 496 496" xml:space="preserve">
<path fill="#000000" opacity="1.000000" stroke="none" 
	d="
M56.036339,245.936066 
	C56.263626,231.981659 54.964081,218.421249 57.635838,205.098999 
	C61.237274,187.141052 83.692223,178.833694 98.497559,189.869995 
	C105.107384,194.797134 106.348846,202.300888 107.254639,209.825958 
	C107.452553,211.470108 107.336235,213.154312 107.333336,214.820023 
	C107.320877,221.978043 107.268440,221.781998 100.119560,222.027206 
	C95.205109,222.195770 93.062729,220.641220 93.572838,215.476852 
	C93.896133,212.203735 93.831009,208.851761 93.081612,205.538101 
	C91.562057,198.818909 89.236183,197.015244 81.780655,197.207718 
	C75.512550,197.369522 72.172859,200.202377 71.431946,206.398438 
	C70.918381,210.693283 70.523880,215.035172 70.539009,219.354416 
	C70.588554,233.502533 69.764442,247.663940 71.264885,261.795502 
	C72.193863,270.544861 77.526085,274.553619 86.095184,272.547180 
	C89.679131,271.708008 91.736053,269.294830 92.672791,265.767944 
	C93.933746,261.020447 93.764610,256.179596 93.619095,251.365036 
	C93.515244,247.928833 94.825073,246.399033 98.284027,246.697723 
	C99.606987,246.811981 100.961166,246.839981 102.278175,246.696548 
	C106.293861,246.259140 107.417496,248.155792 107.402916,251.951233 
	C107.378433,258.325195 106.967323,264.595459 104.811394,270.630768 
	C103.743736,273.619537 102.314125,276.458008 100.029213,278.749481 
	C89.203262,289.606567 65.566658,285.035309 59.581295,270.955109 
	C56.235046,263.083221 56.260044,254.741089 56.036339,245.936066 
z"/>
<path fill="#000000" opacity="1.000000" stroke="none" 
	d="
M385.744995,156.987411 
	C404.100311,175.500763 420.871643,194.706314 434.260559,216.875610 
	C456.945404,254.436981 431.082184,299.322998 390.804077,304.979187 
	C354.824677,310.031738 326.500061,286.676544 320.965637,254.195023 
	C319.263550,244.205353 321.036438,234.706619 327.029175,226.152222 
	C333.258911,217.259552 340.067596,208.880356 347.736359,201.199448 
	C352.136841,196.791977 353.673553,197.117844 356.100616,202.884323 
	C356.529694,203.903763 357.116760,204.856689 357.929993,206.412567 
	C361.848145,201.353973 364.189026,196.050140 366.600708,190.846970 
	C371.295685,180.717728 375.106232,170.248413 377.905548,159.419983 
	C379.303009,154.014023 380.814911,153.524628 385.744995,156.987411 
M326.232239,246.569336 
	C326.335999,248.729004 326.192932,250.934052 326.580475,253.041534 
	C332.542999,285.464081 361.333893,305.108337 393.707397,298.565979 
	C425.686188,292.103455 448.008575,254.379745 430.851257,223.540680 
	C421.950043,207.541519 410.965790,193.223129 398.999176,179.553589 
	C394.221832,174.096390 389.548523,168.473404 383.780914,163.879730 
	C381.943787,165.654556 381.797821,167.722717 381.194092,169.574371 
	C376.117493,185.144638 369.727112,200.103851 360.682037,213.832718 
	C359.691193,215.336655 358.928345,217.244156 356.690002,217.140610 
	C354.127686,217.022079 353.858551,214.696701 352.959351,212.982162 
	C352.082611,211.310516 352.350769,209.013077 349.953247,207.708740 
	C341.399933,215.926605 333.888672,224.921814 328.506226,235.575775 
	C326.918121,238.719223 325.817108,242.035202 326.232239,246.569336 
z"/>
<path fill="#000000" opacity="1.000000" stroke="none" 
	d="
M236.883392,268.454407 
	C233.649048,280.339844 228.701797,284.768372 219.732666,284.329712 
	C216.025726,284.148407 213.208878,282.068146 209.309723,279.826141 
	C209.309723,286.925385 208.978256,293.493256 209.412628,300.010071 
	C209.772186,305.404236 207.401840,306.501099 202.670181,306.279480 
	C195.842514,305.959686 195.682770,306.084564 195.679092,299.789093 
	C195.663528,273.130280 195.650238,246.471420 195.720108,219.812790 
	C195.726044,217.548904 194.710205,214.631012 198.489212,213.849533 
	C204.161102,212.676636 208.220901,213.861313 210.008316,217.761826 
	C213.972778,214.403046 218.478485,212.438950 223.692947,213.018494 
	C231.658295,213.903824 235.853119,219.223709 237.285614,230.237244 
	C238.925797,242.847504 238.804688,255.460236 236.883392,268.454407 
M224.640289,251.447845 
	C224.712769,244.305084 224.852142,237.157562 223.579941,230.083282 
	C222.807663,225.788925 220.342133,223.638474 215.877441,224.273087 
	C211.860504,224.844009 209.170837,226.417068 209.259735,231.271851 
	C209.472702,242.900558 209.305649,254.535873 209.333878,266.168427 
	C209.346054,271.186371 211.130905,273.022644 216.585205,273.476288 
	C220.949188,273.839233 223.022552,271.177032 223.568787,267.307831 
	C224.264023,262.383118 224.979218,257.434662 224.640289,251.447845 
z"/>
<path fill="#000000" opacity="1.000000" stroke="none" 
	d="
M277.217377,214.356232 
	C287.316467,218.559433 287.771423,227.385513 288.056976,235.870331 
	C288.482300,248.506042 288.256775,261.163666 288.309814,273.811951 
	C288.312622,274.477631 288.320984,275.143524 288.342804,275.808807 
	C288.583099,283.131256 286.453033,284.717682 278.961090,283.316162 
	C275.238129,282.619720 276.560089,279.064453 275.066833,277.212646 
	C273.760651,277.223419 273.343292,278.262115 272.743927,278.976868 
	C268.678772,283.824829 263.503967,285.653717 257.572876,283.600281 
	C251.526474,281.506866 248.332535,276.689362 247.641998,270.402344 
	C246.436523,259.427368 250.726639,251.331879 260.492615,246.098251 
	C263.711487,244.373276 267.043579,242.799103 270.460541,241.521255 
	C273.887207,240.239746 275.085052,238.018021 274.476471,234.567078 
	C274.245300,233.256363 273.946930,231.942184 273.884705,230.619904 
	C273.699768,226.690125 272.340790,223.699615 267.918976,223.459488 
	C264.277374,223.261703 261.508362,226.425629 261.363983,231.326309 
	C261.263184,234.748917 260.452606,236.423004 256.549774,236.418716 
	C247.218369,236.408447 246.384613,235.519379 248.867462,226.450851 
	C251.478577,216.913818 260.104523,211.636780 270.993042,212.995926 
	C272.964752,213.242035 274.898987,213.788422 277.217377,214.356232 
M274.596558,256.132782 
	C274.400513,254.030350 274.204437,251.927902 273.999481,249.730026 
	C265.567688,252.657944 261.161194,257.983582 261.204559,264.700470 
	C261.229065,268.493591 261.971802,271.877014 266.418488,272.471344 
	C269.652863,272.903687 274.234406,268.566956 274.530243,264.965149 
	C274.747406,262.321106 274.595856,259.646759 274.596558,256.132782 
z"/>
<path fill="#000000" opacity="1.000000" stroke="none" 
	d="
M142.702759,278.220398 
	C138.522446,283.628967 133.386765,285.584015 127.094948,283.626526 
	C121.255318,281.809692 116.926582,275.543304 116.786789,268.500580 
	C116.609322,259.559296 120.022751,252.340530 127.766693,247.434799 
	C131.722580,244.928757 135.909164,242.854523 140.299957,241.310349 
	C145.428558,239.506714 143.444458,235.352341 143.589218,232.019760 
	C143.737289,228.610886 143.101990,225.194870 139.285706,223.827087 
	C136.220139,222.728348 133.700180,223.818665 132.072617,226.604263 
	C131.503693,227.577988 131.506638,228.876038 130.981079,229.886978 
	C129.950119,231.870041 131.547729,235.295731 128.717911,235.951691 
	C125.724808,236.645538 122.444603,236.237671 119.300606,236.086594 
	C117.708977,236.010086 117.294441,234.724518 117.223640,233.209610 
	C116.685585,221.696823 124.797745,213.367874 137.117554,212.852188 
	C149.266495,212.343674 156.814667,219.037811 157.247833,231.181900 
	C157.556152,239.825485 157.307953,248.488129 157.358368,257.141968 
	C157.399002,264.119476 156.987000,271.112518 158.222824,278.049774 
	C158.882523,281.753021 157.532425,283.255432 153.437820,283.491394 
	C148.071640,283.800629 144.834137,282.375610 144.740402,275.854126 
	C143.725204,277.035950 143.316330,277.511902 142.702759,278.220398 
M143.714371,261.304352 
	C143.495117,257.566833 144.186401,253.763550 143.270691,249.990982 
	C135.200882,252.458694 129.733978,259.040558 130.444122,265.381409 
	C130.780334,268.383423 131.416107,271.621124 135.056763,272.298981 
	C138.617035,272.961853 140.999695,270.634735 142.943878,268.048615 
	C144.230576,266.337067 143.577896,264.184814 143.714371,261.304352 
z"/>
<path fill="#000000" opacity="1.000000" stroke="none" 
	d="
M169.739349,211.000000 
	C169.736954,204.177582 169.873291,197.850952 169.680359,191.534348 
	C169.568832,187.882751 170.911026,186.279694 174.598297,186.613251 
	C176.248474,186.762527 177.926682,186.704895 179.586349,186.623016 
	C182.406265,186.483902 183.355392,187.882782 183.352005,190.555908 
	C183.314514,220.171387 183.315643,249.786957 183.354065,279.402435 
	C183.357498,282.045593 182.502197,283.558350 179.630005,283.325562 
	C179.300018,283.298828 178.964890,283.330597 178.632339,283.341431 
	C169.767044,283.630676 169.753036,283.630859 169.748672,274.890778 
	C169.738129,253.760513 169.741959,232.630264 169.739349,211.000000 
z"/>
<path fill="#000000" opacity="1.000000" stroke="none" 
	d="
M300.628235,199.013214 
	C300.627655,196.852478 300.623810,195.188812 300.627563,193.525177 
	C300.643005,186.653030 300.643829,186.653030 307.414459,186.622269 
	C314.151031,186.591660 314.204529,186.591614 314.210541,193.094330 
	C314.236572,221.209900 314.246185,249.325531 314.195984,277.441040 
	C314.192383,279.455963 315.047150,282.426697 312.265808,282.983337 
	C308.758240,283.685364 304.883789,284.246490 301.550964,282.511841 
	C299.856293,281.629822 300.654846,279.139862 300.652405,277.369080 
	C300.616486,251.416183 300.628082,225.463242 300.628235,199.013214 
z"/>
<path fill="#000000" opacity="1.000000" stroke="none" 
	d="
M411.322083,261.155090 
	C410.948639,277.578552 398.219604,290.765839 382.732635,291.223755 
	C366.988007,291.689301 353.355988,279.612091 351.784332,263.872864 
	C351.325012,259.273163 353.118103,255.419754 355.488831,251.727066 
	C357.925232,247.932068 360.859863,244.529724 364.040924,241.352310 
	C367.979523,237.418213 369.622803,237.809799 371.699402,243.018951 
	C371.941528,243.626358 372.273499,244.197952 372.883240,245.433289 
	C375.957855,239.861252 376.563446,234.157272 377.683929,228.617569 
	C377.979767,227.154999 378.092041,225.653809 378.416809,224.198959 
	C378.830627,222.345078 378.164825,219.875320 380.572571,219.016312 
	C383.058411,218.129440 384.593201,220.022537 386.101471,221.551971 
	C394.061035,229.623413 401.524414,238.109619 407.131958,248.032928 
	C409.343811,251.947052 410.996613,256.129669 411.322083,261.155090 
M399.111450,246.384491 
	C394.862610,240.216049 390.460388,234.188934 384.095337,228.738251 
	C383.631226,230.752197 383.437469,231.529434 383.273804,232.312973 
	C381.706696,239.815674 379.788177,247.205002 375.976013,253.942673 
	C375.086578,255.514725 374.183563,257.276489 371.941772,257.163330 
	C369.621307,257.046204 369.252838,255.109711 368.493591,253.439117 
	C367.780243,251.869522 368.006653,249.714630 365.320465,248.605225 
	C361.984222,253.093109 357.523895,256.958435 358.098602,263.567596 
	C358.911194,272.911743 363.783813,279.580597 372.194000,283.139252 
	C380.730469,286.751312 389.323822,285.986664 396.551636,279.806122 
	C405.248077,272.369690 409.634888,261.039520 399.111450,246.384491 
z"/>
</svg>